<svg width="393" height="584" viewBox="0 0 393 584" fill="none" xmlns="http://www.w3.org/2000/svg">
<g filter="url(#filter0_d_2705_2180)">
<path d="M0 33C0 14.7746 14.7746 0 33 0H360C378.225 0 393 14.7746 393 33V584H0V33Z" fill="white"/>
<path d="M240 270.209C240 263.951 245.82 258.878 253 258.878H346C353.18 258.878 359 263.951 359 270.209V294.615C359 300.873 353.18 305.946 346 305.946H253C245.82 305.946 240 300.873 240 294.615V270.209Z" fill="white"/>
<path d="M82 270.209C82 263.951 87.8203 258.878 95 258.878H188C195.18 258.878 201 263.951 201 270.209V294.615C201 300.873 195.18 305.946 188 305.946H95C87.8203 305.946 82 300.873 82 294.615V270.209Z" fill="white"/>
<path d="M279.522 286.77V285.416C279.746 285.196 280.045 284.899 280.418 284.525C281.006 283.955 281.44 283.524 281.72 283.231C282.345 282.58 282.737 282.137 282.896 281.901C283.055 281.657 283.134 281.389 283.134 281.096C283.134 280.852 283.031 280.648 282.826 280.486C282.621 280.323 282.359 280.242 282.042 280.242C281.491 280.242 280.885 280.437 280.222 280.827L279.452 279.851C280.385 279.208 281.361 278.887 282.378 278.887C283.19 278.887 283.839 279.078 284.324 279.461C284.8 279.835 285.038 280.351 285.038 281.01C285.038 281.498 284.851 282.011 284.478 282.548C284.114 283.077 283.4 283.866 282.336 284.915C282.075 285.176 281.883 285.367 281.762 285.489H284.94V286.77H279.522ZM289.403 278.899C290.486 278.899 291.354 279.351 292.007 280.254C292.558 281.002 292.833 281.893 292.833 282.926C292.833 284.171 292.483 285.167 291.783 285.916C291.167 286.583 290.374 286.917 289.403 286.917C288.293 286.917 287.425 286.485 286.799 285.623C286.277 284.907 286.015 284.008 286.015 282.926C286.015 281.722 286.361 280.734 287.051 279.961C287.677 279.253 288.461 278.899 289.403 278.899ZM289.431 280.266C288.423 280.266 287.919 281.128 287.919 282.853C287.919 283.723 288.064 284.407 288.353 284.903C288.615 285.351 288.96 285.574 289.389 285.574C289.865 285.574 290.239 285.334 290.509 284.854C290.789 284.366 290.929 283.699 290.929 282.853C290.929 281.128 290.43 280.266 289.431 280.266ZM297.292 278.899C298.375 278.899 299.243 279.351 299.896 280.254C300.447 281.002 300.722 281.893 300.722 282.926C300.722 284.171 300.372 285.167 299.672 285.916C299.056 286.583 298.263 286.917 297.292 286.917C296.181 286.917 295.313 286.485 294.688 285.623C294.165 284.907 293.904 284.008 293.904 282.926C293.904 281.722 294.249 280.734 294.94 279.961C295.565 279.253 296.349 278.899 297.292 278.899ZM297.32 280.266C296.312 280.266 295.808 281.128 295.808 282.853C295.808 283.723 295.953 284.407 296.242 284.903C296.503 285.351 296.849 285.574 297.278 285.574C297.754 285.574 298.127 285.334 298.398 284.854C298.678 284.366 298.818 283.699 298.818 282.853C298.818 281.128 298.319 280.266 297.32 280.266ZM305.181 278.899C306.263 278.899 307.131 279.351 307.785 280.254C308.335 281.002 308.611 281.893 308.611 282.926C308.611 284.171 308.261 285.167 307.561 285.916C306.945 286.583 306.151 286.917 305.181 286.917C304.07 286.917 303.202 286.485 302.577 285.623C302.054 284.907 301.793 284.008 301.793 282.926C301.793 281.722 302.138 280.734 302.829 279.961C303.454 279.253 304.238 278.899 305.181 278.899ZM305.209 280.266C304.201 280.266 303.697 281.128 303.697 282.853C303.697 283.723 303.841 284.407 304.131 284.903C304.392 285.351 304.737 285.574 305.167 285.574C305.643 285.574 306.016 285.334 306.287 284.854C306.567 284.366 306.707 283.699 306.707 282.853C306.707 281.128 306.207 280.266 305.209 280.266ZM313.069 278.899C314.152 278.899 315.02 279.351 315.673 280.254C316.224 281.002 316.499 281.893 316.499 282.926C316.499 284.171 316.149 285.167 315.449 285.916C314.833 286.583 314.04 286.917 313.069 286.917C311.959 286.917 311.091 286.485 310.465 285.623C309.943 284.907 309.681 284.008 309.681 282.926C309.681 281.722 310.027 280.734 310.717 279.961C311.343 279.253 312.127 278.899 313.069 278.899ZM313.097 280.266C312.089 280.266 311.585 281.128 311.585 282.853C311.585 283.723 311.73 284.407 312.019 284.903C312.281 285.351 312.626 285.574 313.055 285.574C313.531 285.574 313.905 285.334 314.175 284.854C314.455 284.366 314.595 283.699 314.595 282.853C314.595 281.128 314.096 280.266 313.097 280.266Z" fill="white"/>
</g>
<defs>
<filter id="filter0_d_2705_2180" x="-4" y="0" width="401" height="592" filterUnits="userSpaceOnUse" color-interpolation-filters="sRGB">
<feFlood flood-opacity="0" result="BackgroundImageFix"/>
<feColorMatrix in="SourceAlpha" type="matrix" values="0 0 0 0 0 0 0 0 0 0 0 0 0 0 0 0 0 0 127 0" result="hardAlpha"/>
<feOffset dy="4"/>
<feGaussianBlur stdDeviation="2"/>
<feComposite in2="hardAlpha" operator="out"/>
<feColorMatrix type="matrix" values="0 0 0 0 0 0 0 0 0 0 0 0 0 0 0 0 0 0 0.25 0"/>
<feBlend mode="normal" in2="BackgroundImageFix" result="effect1_dropShadow_2705_2180"/>
<feBlend mode="normal" in="SourceGraphic" in2="effect1_dropShadow_2705_2180" result="shape"/>
</filter>
</defs>
</svg>
